<svg width="24" height="25" viewBox="0 0 24 25" fill="none" xmlns="http://www.w3.org/2000/svg">
<path d="M12.7072 21.4004C12.5263 21.5813 12.2763 21.6932 12.0001 21.6932C11.4476 21.6932 11.0002 21.2457 11.0002 20.6933V3.72273C11.0002 3.17029 11.4477 2.72283 12.0001 2.72284C12.5525 2.72284 13 3.1703 13 3.72273L13 20.6933C13 20.9695 12.8881 21.2195 12.7072 21.4004Z" fill="white"/>
<path d="M21.1925 12.9151C21.0115 13.096 20.7616 13.2079 20.4854 13.2079L3.5148 13.2079C2.96237 13.2079 2.5149 12.7604 2.51491 12.208C2.51492 11.6556 2.96237 11.2081 3.5148 11.2081L20.4854 11.2081C21.0378 11.2081 21.4853 11.6556 21.4853 12.208C21.4853 12.4842 21.3734 12.7342 21.1925 12.9151Z" fill="white"/>
</svg>
